<svg width="400" height="200" viewBox="0 0 400 200" fill="none" xmlns="http://www.w3.org/2000/svg">
<rect width="400" height="200" fill="#F5FFFA"/>
<path d="M35.188 52.328C35.188 49.832 35.728 47.612 36.808 45.668C37.888 43.7 39.388 42.176 41.308 41.096C43.252 39.992 45.448 39.44 47.896 39.44C50.896 39.44 53.464 40.232 55.6 41.816C57.736 43.4 59.164 45.56 59.884 48.296H53.116C52.612 47.24 51.892 46.436 50.956 45.884C50.044 45.332 49 45.056 47.824 45.056C45.928 45.056 44.392 45.716 43.216 47.036C42.04 48.356 41.452 50.12 41.452 52.328C41.452 54.536 42.04 56.3 43.216 57.62C44.392 58.94 45.928 59.6 47.824 59.6C49 59.6 50.044 59.324 50.956 58.772C51.892 58.22 52.612 57.416 53.116 56.36H59.884C59.164 59.096 57.736 61.256 55.6 62.84C53.464 64.4 50.896 65.18 47.896 65.18C45.448 65.18 43.252 64.64 41.308 63.56C39.388 62.456 37.888 60.932 36.808 58.988C35.728 57.044 35.188 54.824 35.188 52.328ZM80.4299 47.72C79.9739 46.88 79.3139 46.244 78.4499 45.812C77.6099 45.356 76.6139 45.128 75.4619 45.128C73.4699 45.128 71.8739 45.788 70.6739 47.108C69.4739 48.404 68.8739 50.144 68.8739 52.328C68.8739 54.656 69.4979 56.48 70.7459 57.8C72.0179 59.096 73.7579 59.744 75.9659 59.744C77.4779 59.744 78.7499 59.36 79.7819 58.592C80.8379 57.824 81.6059 56.72 82.0859 55.28H74.2739V50.744H87.6659V56.468C87.2099 58.004 86.4299 59.432 85.3259 60.752C84.2459 62.072 82.8659 63.14 81.1859 63.956C79.5059 64.772 77.6099 65.18 75.4979 65.18C73.0019 65.18 70.7699 64.64 68.8019 63.56C66.8579 62.456 65.3339 60.932 64.2299 58.988C63.1499 57.044 62.6099 54.824 62.6099 52.328C62.6099 49.832 63.1499 47.612 64.2299 45.668C65.3339 43.7 66.8579 42.176 68.8019 41.096C70.7459 39.992 72.9659 39.44 75.4619 39.44C78.4859 39.44 81.0299 40.172 83.0939 41.636C85.1819 43.1 86.5619 45.128 87.2339 47.72H80.4299ZM110.336 47.864C110.336 49.328 110 50.672 109.328 51.896C108.656 53.096 107.624 54.068 106.232 54.812C104.84 55.556 103.112 55.928 101.048 55.928H97.2318V65H91.0758V39.728H101.048C103.064 39.728 104.768 40.076 106.16 40.772C107.552 41.468 108.596 42.428 109.292 43.652C109.988 44.876 110.336 46.28 110.336 47.864ZM100.58 51.032C101.756 51.032 102.632 50.756 103.208 50.204C103.784 49.652 104.072 48.872 104.072 47.864C104.072 46.856 103.784 46.076 103.208 45.524C102.632 44.972 101.756 44.696 100.58 44.696H97.2318V51.032H100.58ZM129.273 60.536H119.841L118.329 65H111.885L121.029 39.728H128.157L137.301 65H130.785L129.273 60.536ZM127.689 55.784L124.557 46.532L121.461 55.784H127.689Z" fill="#2C2C2C"/>
<path d="M47.428 101.78V107H44.296C42.064 107 40.324 106.46 39.076 105.38C37.828 104.276 37.204 102.488 37.204 100.016V92.024H34.756V86.912H37.204V82.016H43.36V86.912H47.392V92.024H43.36V100.088C43.36 100.688 43.504 101.12 43.792 101.384C44.08 101.648 44.56 101.78 45.232 101.78H47.428ZM60.001 107.288C58.033 107.288 56.257 106.868 54.673 106.028C53.113 105.188 51.877 103.988 50.965 102.428C50.077 100.868 49.633 99.044 49.633 96.956C49.633 94.892 50.089 93.08 51.001 91.52C51.913 89.936 53.161 88.724 54.745 87.884C56.329 87.044 58.105 86.624 60.073 86.624C62.041 86.624 63.817 87.044 65.401 87.884C66.985 88.724 68.233 89.936 69.145 91.52C70.057 93.08 70.513 94.892 70.513 96.956C70.513 99.02 70.045 100.844 69.109 102.428C68.197 103.988 66.937 105.188 65.329 106.028C63.745 106.868 61.969 107.288 60.001 107.288ZM60.001 101.96C61.177 101.96 62.173 101.528 62.989 100.664C63.829 99.8 64.249 98.564 64.249 96.956C64.249 95.348 63.841 94.112 63.025 93.248C62.233 92.384 61.249 91.952 60.073 91.952C58.873 91.952 57.877 92.384 57.085 93.248C56.293 94.088 55.897 95.324 55.897 96.956C55.897 98.564 56.281 99.8 57.049 100.664C57.841 101.528 58.825 101.96 60.001 101.96Z" fill="#2C2C2C"/>
<path d="M55.492 132.864C55.492 134.328 55.156 135.672 54.484 136.896C53.812 138.096 52.78 139.068 51.388 139.812C49.996 140.556 48.268 140.928 46.204 140.928H42.388V150H36.232V124.728H46.204C48.22 124.728 49.924 125.076 51.316 125.772C52.708 126.468 53.752 127.428 54.448 128.652C55.144 129.876 55.492 131.28 55.492 132.864ZM45.736 136.032C46.912 136.032 47.788 135.756 48.364 135.204C48.94 134.652 49.228 133.872 49.228 132.864C49.228 131.856 48.94 131.076 48.364 130.524C47.788 129.972 46.912 129.696 45.736 129.696H42.388V136.032H45.736ZM77.6328 139.632C77.6328 140.208 77.5968 140.808 77.5248 141.432H63.5928C63.6888 142.68 64.0848 143.64 64.7808 144.312C65.5008 144.96 66.3768 145.284 67.4088 145.284C68.9448 145.284 70.0128 144.636 70.6128 143.34H77.1648C76.8288 144.66 76.2168 145.848 75.3288 146.904C74.4648 147.96 73.3728 148.788 72.0528 149.388C70.7328 149.988 69.2568 150.288 67.6248 150.288C65.6568 150.288 63.9048 149.868 62.3688 149.028C60.8328 148.188 59.6328 146.988 58.7688 145.428C57.9048 143.868 57.4728 142.044 57.4728 139.956C57.4728 137.868 57.8928 136.044 58.7328 134.484C59.5968 132.924 60.7968 131.724 62.3328 130.884C63.8688 130.044 65.6328 129.624 67.6248 129.624C69.5688 129.624 71.2968 130.032 72.8088 130.848C74.3208 131.664 75.4968 132.828 76.3368 134.34C77.2008 135.852 77.6328 137.616 77.6328 139.632ZM71.3328 138.012C71.3328 136.956 70.9728 136.116 70.2528 135.492C69.5328 134.868 68.6328 134.556 67.5528 134.556C66.5208 134.556 65.6448 134.856 64.9248 135.456C64.2288 136.056 63.7968 136.908 63.6288 138.012H71.3328ZM87.0364 133.26C87.7564 132.156 88.6564 131.292 89.7364 130.668C90.8164 130.02 92.0164 129.696 93.3364 129.696V136.212H91.6444C90.1084 136.212 88.9564 136.548 88.1884 137.22C87.4204 137.868 87.0364 139.02 87.0364 140.676V150H80.8804V129.912H87.0364V133.26ZM95.0549 139.956C95.0549 137.868 95.4749 136.044 96.3149 134.484C97.1789 132.924 98.3669 131.724 99.8789 130.884C101.415 130.044 103.167 129.624 105.135 129.624C107.655 129.624 109.755 130.284 111.435 131.604C113.139 132.924 114.255 134.784 114.783 137.184H108.231C107.679 135.648 106.611 134.88 105.027 134.88C103.899 134.88 102.999 135.324 102.327 136.212C101.655 137.076 101.319 138.324 101.319 139.956C101.319 141.588 101.655 142.848 102.327 143.736C102.999 144.6 103.899 145.032 105.027 145.032C106.611 145.032 107.679 144.264 108.231 142.728H114.783C114.255 145.08 113.139 146.928 111.435 148.272C109.731 149.616 107.631 150.288 105.135 150.288C103.167 150.288 101.415 149.868 99.8789 149.028C98.3669 148.188 97.1789 146.988 96.3149 145.428C95.4749 143.868 95.0549 142.044 95.0549 139.956ZM137.012 139.632C137.012 140.208 136.976 140.808 136.904 141.432H122.972C123.068 142.68 123.464 143.64 124.16 144.312C124.88 144.96 125.756 145.284 126.788 145.284C128.324 145.284 129.392 144.636 129.992 143.34H136.544C136.208 144.66 135.596 145.848 134.708 146.904C133.844 147.96 132.752 148.788 131.432 149.388C130.112 149.988 128.636 150.288 127.004 150.288C125.036 150.288 123.284 149.868 121.748 149.028C120.212 148.188 119.012 146.988 118.148 145.428C117.284 143.868 116.852 142.044 116.852 139.956C116.852 137.868 117.272 136.044 118.112 134.484C118.976 132.924 120.176 131.724 121.712 130.884C123.248 130.044 125.012 129.624 127.004 129.624C128.948 129.624 130.676 130.032 132.188 130.848C133.7 131.664 134.876 132.828 135.716 134.34C136.58 135.852 137.012 137.616 137.012 139.632ZM130.712 138.012C130.712 136.956 130.352 136.116 129.632 135.492C128.912 134.868 128.012 134.556 126.932 134.556C125.9 134.556 125.024 134.856 124.304 135.456C123.608 136.056 123.176 136.908 123.008 138.012H130.712ZM152.499 129.696C154.851 129.696 156.723 130.464 158.115 132C159.531 133.512 160.239 135.6 160.239 138.264V150H154.119V139.092C154.119 137.748 153.771 136.704 153.075 135.96C152.379 135.216 151.443 134.844 150.267 134.844C149.091 134.844 148.155 135.216 147.459 135.96C146.763 136.704 146.415 137.748 146.415 139.092V150H140.259V129.912H146.415V132.576C147.039 131.688 147.879 130.992 148.935 130.488C149.991 129.96 151.179 129.696 152.499 129.696ZM175.713 144.78V150H172.581C170.349 150 168.609 149.46 167.361 148.38C166.113 147.276 165.489 145.488 165.489 143.016V135.024H163.041V129.912H165.489V125.016H171.645V129.912H175.677V135.024H171.645V143.088C171.645 143.688 171.789 144.12 172.077 144.384C172.365 144.648 172.845 144.78 173.517 144.78H175.713Z" fill="#2C2C2C"/>
<path d="M361 94.9998C361.009 102.966 359.655 110.876 356.997 118.386C356.996 118.391 356.994 118.394 356.993 118.399C356.981 118.434 356.969 118.466 356.956 118.5V118.502C356.389 120.095 355.766 121.661 355.087 123.201C353.374 127.084 351.312 130.802 348.925 134.311C348.346 135.166 347.747 136.007 347.128 136.833C346.446 137.748 345.743 138.644 345.018 139.522C344.349 140.332 343.663 141.126 342.959 141.905C342.123 142.832 341.262 143.736 340.375 144.617C338.29 146.694 336.075 148.637 333.745 150.436C333.336 150.754 332.922 151.066 332.504 151.372C331.532 152.09 330.539 152.783 329.528 153.45C327.303 154.921 324.995 156.262 322.616 157.468C322.205 157.677 321.791 157.883 321.376 158.083C319.768 158.859 318.127 159.574 316.454 160.226C315.977 160.414 315.498 160.595 315.014 160.77C314.933 160.801 314.851 160.831 314.768 160.859C309.031 162.93 303.046 164.237 296.967 164.747C296.545 164.785 296.122 164.817 295.699 164.843C295.25 164.875 294.8 164.9 294.35 164.92C293.994 164.938 293.64 164.951 293.283 164.961C293.21 164.965 293.135 164.968 293.062 164.968C292.581 164.983 292.099 164.992 291.615 164.996C291.411 164.998 291.206 165 291 165C290.903 165 290.807 165 290.711 164.998C289.316 164.993 287.931 164.947 286.557 164.862C286.529 164.86 286.501 164.857 286.472 164.857C285.98 164.823 285.49 164.788 285.001 164.745C283.26 164.599 281.538 164.388 279.835 164.113C279.442 164.052 279.051 163.985 278.661 163.914C276.967 163.615 275.294 163.254 273.645 162.831C273.154 162.707 272.666 162.576 272.181 162.441C269.382 161.662 266.635 160.708 263.956 159.584C262.418 158.939 260.909 158.242 259.428 157.492C258.762 157.155 258.102 156.807 257.448 156.448C257.27 156.352 257.094 156.254 256.918 156.156C255.631 155.437 254.37 154.68 253.137 153.884C252.126 153.234 251.134 152.558 250.161 151.856C250.041 151.773 249.923 151.686 249.805 151.6C249.058 151.056 248.324 150.499 247.602 149.927C246.03 148.682 244.515 147.373 243.056 146.002C242.047 145.054 241.067 144.076 240.116 143.069C234.578 137.211 230.091 130.443 226.853 123.061C226.164 121.49 225.533 119.89 224.957 118.261C224.955 118.257 224.954 118.253 224.954 118.249C222.329 110.779 220.992 102.918 221 94.9998C221 65.6099 239.114 40.4498 264.786 30.0746C273.935 26.3927 283.757 24.6804 293.612 25.0491C303.467 25.4178 313.134 27.8593 321.983 32.2145C345.101 43.6422 361 67.4654 361 94.9998Z" fill="#F5FFFA"/>
<path d="M321.983 32.2145V120.672H264.786V30.0746C273.935 26.3927 283.757 24.6804 293.612 25.0491C303.467 25.4178 313.134 27.8593 321.983 32.2145Z" fill="white"/>
<path d="M278.55 72.5531C280.101 69.9869 281.94 67.2469 284.819 66.4089C288.154 65.4385 291.579 67.3663 294.485 69.2685C303.174 74.9576 311.542 81.123 319.55 87.7364L319.542 87.836C313.307 87.4061 307.072 86.9761 300.837 86.5462C296.333 86.2355 291.673 85.882 287.693 83.7511C286.182 82.9425 284.71 81.8623 282.998 81.787C280.871 81.6935 279.017 83.1788 277.56 84.7306C268.94 93.9098 266.445 107.947 256.774 116.012C262.872 100.972 270.154 86.4408 278.55 72.5531Z" fill="#F5FFFA"/>
<path d="M326.166 34.4705C326.022 34.3741 325.875 34.2826 325.731 34.1895C321.549 31.5152 317.067 29.3426 312.377 27.7166L311.29 42.7175H304.396V25.5269C303.963 25.4371 303.525 25.3523 303.088 25.2725V42.7175H294.896C290.386 42.7175 286.061 40.926 282.872 37.7371C279.683 34.5481 277.891 30.223 277.891 25.7131C277.452 25.8079 277.017 25.9093 276.581 26.0174V42.7175H269.909L268.873 28.4133C264.053 30.2616 259.478 32.6922 255.249 35.6511C255.175 35.7009 255.102 35.7525 255.031 35.8024C254.663 36.0601 254.301 36.3228 253.94 36.5888V120.088H273.605L273.257 115.275L271.345 62.5752H309.852L307.94 115.275L307.592 120.088H327.039V35.0492C326.75 34.853 326.459 34.6601 326.166 34.4705ZM276.581 58.2106H271.029L270.003 44.0277H276.581V58.2106ZM303.088 58.2106H293.763V57.9296C293.764 57.7945 293.737 57.6608 293.685 57.536C293.633 57.4112 293.558 57.2979 293.462 57.2024C293.366 57.107 293.253 57.0313 293.128 56.9798C293.003 56.9282 292.869 56.9018 292.734 56.9021H288.681C288.546 56.902 288.412 56.9285 288.287 56.9802C288.163 57.0318 288.049 57.1075 287.954 57.2029C287.858 57.2983 287.783 57.4116 287.731 57.5363C287.68 57.661 287.653 57.7947 287.653 57.9296V58.2106H277.891V44.0277H303.088V58.2106ZM304.396 58.2106V44.0277H311.195L310.169 58.2106H304.396Z" fill="#3F3D56"/>
<path d="M356.998 118.385C356.996 118.39 356.994 118.394 356.993 118.399C356.981 118.434 356.969 118.465 356.956 118.5V118.502C356.389 120.095 355.766 121.661 355.087 123.201L226.853 123.061C226.165 121.49 225.533 119.89 224.957 118.261C224.956 118.257 224.954 118.253 224.954 118.249L356.998 118.385Z" fill="#3F3D56"/>
<path d="M309.075 118.932H286.629V121.925H309.075V118.932Z" fill="white"/>
<path d="M256.916 148.241C256.996 147.538 257.106 146.839 257.247 146.144C258.016 142.379 259.668 138.849 262.065 135.846C263.437 135.922 264.639 135.713 264.754 133.056C264.776 132.583 265.126 132.173 265.203 131.707C265.073 131.726 264.939 131.735 264.809 131.744C264.767 131.745 264.724 131.749 264.684 131.75H264.669C264.525 131.757 264.382 131.722 264.258 131.649C264.133 131.577 264.033 131.47 263.968 131.341C263.903 131.212 263.877 131.067 263.892 130.924C263.908 130.781 263.965 130.645 264.056 130.533C264.112 130.465 264.169 130.395 264.225 130.326C264.31 130.217 264.398 130.113 264.485 130.006C264.495 129.995 264.503 129.985 264.513 129.973C264.611 129.852 264.709 129.73 264.809 129.609C264.629 129.329 264.386 129.095 264.101 128.924C263.111 128.344 261.746 128.746 261.031 129.64C260.315 130.535 260.178 131.792 260.428 132.909C260.641 133.867 261.104 134.745 261.625 135.58C261.572 135.648 261.515 135.714 261.462 135.784C260.481 137.046 259.626 138.4 258.91 139.828C259.112 138.243 256.633 132.524 255.674 131.312C254.522 129.857 252.161 130.492 251.958 132.337C251.956 132.354 251.953 132.372 251.951 132.391C252.094 132.47 252.234 132.555 252.37 132.647C252.542 132.761 252.674 132.925 252.751 133.116C252.828 133.307 252.845 133.517 252.8 133.718C252.756 133.919 252.652 134.102 252.501 134.243C252.351 134.384 252.161 134.476 251.958 134.507L251.936 134.511C250.031 137.232 256.141 144.317 257.673 142.728C257.288 143.809 256.98 144.917 256.753 146.043C256.549 147.036 256.407 148.04 256.327 149.051C256.23 150.323 256.237 151.602 256.346 152.873C256.343 152.859 256.341 152.844 256.339 152.829C255.998 150.058 250.167 145.94 248.465 146.282C247.484 146.48 246.518 146.435 246.667 147.425C246.669 147.441 246.672 147.456 246.674 147.473C246.938 147.58 247.195 147.704 247.444 147.844C247.587 147.924 247.726 148.01 247.863 148.1C248.023 148.207 248.15 148.357 248.228 148.534C248.307 148.71 248.334 148.905 248.307 149.096C248.28 149.287 248.199 149.466 248.074 149.613C247.949 149.76 247.786 149.869 247.602 149.927C248.325 150.497 249.059 151.055 249.805 151.6C249.923 151.686 250.041 151.773 250.161 151.856C251.133 152.558 252.125 153.234 253.137 153.884C254.37 154.679 255.631 155.436 256.918 156.156C257.094 156.254 257.27 156.352 257.448 156.448C257.001 154.608 256.774 152.721 256.773 150.827C256.773 149.963 256.82 149.1 256.916 148.241ZM257.826 142.3L257.829 142.295C257.829 142.298 257.828 142.301 257.826 142.304V142.3ZM256.5 154.257L256.449 154.142C256.451 154.057 256.451 153.974 256.449 153.888C256.449 153.864 256.444 153.841 256.444 153.818C256.464 153.966 256.48 154.114 256.502 154.262L256.5 154.257ZM264.137 154.483C264.155 154.406 264.17 154.353 264.189 154.277C264.182 154.26 264.175 154.244 264.169 154.229C263.615 152.91 260.692 155.569 259.428 157.492C260.908 158.241 262.417 158.938 263.956 159.584C264.059 159.454 264.165 159.326 264.27 159.197C264.28 159.185 264.288 159.175 264.297 159.163C264.523 158.884 264.751 158.608 264.975 158.329C264.977 158.274 264.977 158.219 264.977 158.166C264.975 157.365 264.876 156.567 264.684 155.79C264.53 155.797 264.377 155.756 264.246 155.674C264.116 155.591 264.013 155.47 263.954 155.328C263.894 155.185 263.88 155.027 263.912 154.876C263.945 154.725 264.024 154.588 264.137 154.483Z" fill="white"/>
<path d="M300.104 119.878C300.504 120.154 300.958 120.338 301.437 120.419C301.915 120.499 302.405 120.474 302.872 120.345C303.34 120.215 303.773 119.985 304.142 119.67C304.511 119.355 304.806 118.963 305.007 118.522L316.745 119.62L313.863 114.214L303.159 114C302.395 113.712 301.552 113.713 300.789 114.005C300.026 114.297 299.397 114.858 299.021 115.582C298.644 116.307 298.547 117.145 298.746 117.936C298.946 118.728 299.429 119.419 300.104 119.878Z" fill="#FFB6B6"/>
<path d="M312.006 119.508L328.249 121.329L328.305 121.257C328.413 121.12 339.041 107.516 340.826 104.277C341.925 102.331 342.325 100.068 341.96 97.864L341.948 97.8101L341.906 97.7743C341.04 97.0487 339.953 96.6397 338.823 96.615C337.694 96.5902 336.589 96.9511 335.693 97.6381C331.38 100.978 327.903 105.275 325.535 110.189L324.192 112.986L312.006 114.187V119.508Z" fill="#48FFB2"/>
<path d="M298.828 157.558L295.699 164.844C295.25 164.875 294.801 164.901 294.351 164.92C293.995 164.939 293.641 164.952 293.283 164.962L293.162 165L293.062 164.968C292.581 164.983 292.099 164.993 291.615 164.997C291.411 164.998 291.206 165 291 165C290.904 165 290.807 165 290.711 164.998L290.919 164.287L291.163 163.444L292.134 160.105L293.536 155.285L295.621 156.179L298.828 157.558Z" fill="#FFB6B6"/>
<path d="M321.376 158.083C319.768 158.86 318.128 159.574 316.455 160.226L314.818 157.475L320.093 155.158L321.376 158.083Z" fill="#FFB6B6"/>
<path d="M332.505 145.576V151.372C331.532 152.091 330.54 152.783 329.528 153.451V145.576H332.505Z" fill="#CACACA"/>
<path d="M342.96 141.905C342.123 142.833 341.262 143.737 340.376 144.617C338.29 146.694 336.075 148.638 333.745 150.437H320.477C320.124 150.437 319.776 150.361 319.455 150.216C319.134 150.071 318.848 149.858 318.616 149.594L318.614 149.589C318.338 149.276 318.145 148.899 318.056 148.491L318.054 148.488C318.017 148.313 317.998 148.135 317.998 147.956V144.386C317.998 143.729 318.259 143.098 318.724 142.633C319.189 142.168 319.819 141.906 320.477 141.905H342.96Z" fill="#3F3D56"/>
<path d="M348.427 127.972L346.988 134.134C347.129 135.026 347.176 135.931 347.128 136.834C346.446 137.748 345.743 138.644 345.018 139.522C344.35 140.332 343.664 141.126 342.96 141.905C342.123 142.833 341.262 143.737 340.376 144.617C338.068 145.342 335.348 145.638 332.505 145.658C331.524 145.666 330.528 145.639 329.528 145.586C325.476 145.373 321.378 144.723 318.021 144.048C317.133 143.872 316.298 143.692 315.53 143.518C314.075 143.19 312.858 142.884 311.977 142.652C310.984 142.392 310.419 142.224 310.419 142.224L306.643 148.548L303.214 154.287L298.797 159.925C298.374 159.964 297.951 159.996 297.528 160.022C297.079 160.053 296.63 160.079 296.18 160.098C295.824 160.117 295.47 160.13 295.112 160.14L294.991 160.178L294.891 160.147L293.288 159.636L292.748 159.465L290.804 158.846C290.804 158.846 291.238 157.48 291.998 155.2C292.277 154.364 294.256 148.18 296.326 142.781C296.939 141.178 297.575 139.552 298.228 137.934C298.763 136.606 299.309 135.282 299.861 133.977C300.82 131.714 305.456 130.494 310.914 129.854C311.192 129.822 311.471 129.791 311.752 129.761C314.534 129.468 317.485 129.317 320.245 129.247C321.627 129.212 322.961 129.199 324.201 129.197C324.602 129.197 324.991 129.198 325.37 129.2H325.372C326.394 129.205 327.335 129.22 328.163 129.237C328.325 129.24 328.481 129.245 328.634 129.249H328.635C328.739 129.25 328.84 129.254 328.94 129.255C330.75 129.302 331.861 129.358 331.861 129.358L332.292 125.98L332.38 125.298L332.463 124.649V124.648L332.473 124.566L332.541 124.565L333.738 124.541L343.801 124.345L348.087 124.164L348.427 127.972Z" fill="#2F2E41"/>
<path d="M321.12 155.306C320.709 155.516 320.295 155.722 319.88 155.922C318.272 156.698 316.631 157.412 314.958 158.065C314.481 158.253 314.002 158.434 313.518 158.608C313.465 158.534 313.41 158.459 313.355 158.384C311.047 155.217 309.611 153.198 306.643 148.547C305.401 146.602 304.152 144.574 302.94 142.502L311.716 138.405L312.7 137.946L315.53 143.518L318.054 148.488L318.616 149.593L321.12 155.306Z" fill="#2F2E41"/>
<path d="M335.355 88.1914C339.82 88.1914 343.44 84.5717 343.44 80.1065C343.44 75.6413 339.82 72.0215 335.355 72.0215C330.89 72.0215 327.27 75.6413 327.27 80.1065C327.27 84.5717 330.89 88.1914 335.355 88.1914Z" fill="#FFB6B6"/>
<path d="M349.787 105.237C349.72 98.5598 349.916 100.494 349.388 98.1941C347.968 92.0121 342.073 90.8848 341.046 90.7451C340.936 90.4538 340.768 90.188 340.552 89.9645C340.335 89.7409 340.075 89.5643 339.787 89.4456C339.499 89.3269 339.19 89.2687 338.879 89.2746C338.568 89.2805 338.261 89.3503 337.978 89.4798L336.011 90.5C334.104 91.3729 335.261 92.634 334.603 94.6242L333.911 96.7359L328.243 112.404L329.39 118.364L329.392 118.368L330.165 122.383L332.458 124.995L332.415 124.578L332.363 124.658L332.362 124.659L332.229 124.857C332.413 124.959 332.596 125.058 332.776 125.158C333.241 125.414 333.695 125.665 334.137 125.911C334.244 125.971 334.349 126.029 334.453 126.089H334.455C334.521 126.126 334.588 126.162 334.653 126.199C336.312 127.127 330.17 128.816 331.535 129.609C331.725 129.719 331.913 129.829 332.097 129.937C338.382 133.613 343.397 138.192 345.018 139.522C345.743 138.644 346.446 137.748 347.128 136.834C347.747 136.007 348.346 135.166 348.925 134.311C349.027 133.643 349.095 132.974 349.162 132.319C349.241 131.531 348.826 124.23 348.965 123.427C349.027 123.071 348.791 122.734 348.563 122.408C348.352 122.104 348.152 121.818 348.194 121.548C348.237 121.271 348.543 120.968 348.841 120.674C349.165 120.351 349.501 120.019 349.549 119.668C349.682 118.69 349.135 117.709 349.238 116.725C349.408 115.124 349.538 113.518 349.629 111.906C349.757 109.682 349.809 107.459 349.787 105.237Z" fill="#48FFB2"/>
<path d="M304.185 121.613C304.519 121.262 304.925 120.987 305.377 120.81C305.828 120.632 306.313 120.556 306.797 120.586C307.281 120.616 307.752 120.752 308.178 120.984C308.604 121.216 308.974 121.538 309.262 121.929L320.52 118.432L318.816 124.316L308.386 126.735C307.699 127.175 306.873 127.347 306.067 127.219C305.26 127.091 304.529 126.672 304.011 126.04C303.493 125.409 303.225 124.61 303.257 123.794C303.289 122.978 303.619 122.202 304.185 121.613Z" fill="#FFB6B6"/>
<path d="M317.834 124.869L338.731 120.56L333.308 121.904C333.369 121.741 339.464 105.589 340.205 101.966C340.674 99.7809 340.383 97.5014 339.378 95.5056L339.35 95.4577L339.299 95.4362C338.256 95.0013 337.097 94.9346 336.011 95.2473C334.925 95.56 333.979 96.2333 333.327 97.1562C330.205 101.629 328.165 106.766 327.368 112.162L326.918 115.232L319.55 117.436L317.834 124.869Z" fill="#48FFB2"/>
<path d="M278.889 118.289C278.962 118.503 279.101 118.687 279.286 118.817C279.471 118.946 279.692 119.014 279.917 119.009L284.322 118.896C284.549 118.892 284.769 118.814 284.948 118.674C285.127 118.535 285.256 118.341 285.316 118.122L285.94 111.457C286.161 111.557 286.402 111.606 286.644 111.601C287.07 111.591 287.474 111.411 287.768 111.102C288.062 110.794 288.221 110.381 288.21 109.955C288.199 109.529 288.02 109.125 287.711 108.831C287.402 108.538 286.99 108.379 286.564 108.39C286.467 108.389 286.37 108.399 286.275 108.42C286.172 108.308 286.046 108.219 285.907 108.159C285.767 108.099 285.617 108.068 285.465 108.07L278.689 108.245C278.633 108.247 278.577 108.254 278.522 108.266C278.373 108.293 278.232 108.352 278.109 108.439C277.985 108.526 277.881 108.638 277.804 108.768C277.727 108.899 277.679 109.044 277.664 109.194C277.648 109.344 277.664 109.496 277.712 109.64L278.889 118.289ZM286.068 111.004L286.511 109.416C286.562 109.232 286.563 109.039 286.514 108.855C286.536 108.854 286.555 108.844 286.576 108.844C286.881 108.838 287.175 108.952 287.395 109.163C287.614 109.373 287.742 109.662 287.749 109.966C287.756 110.27 287.642 110.565 287.433 110.785C287.223 111.005 286.934 111.134 286.63 111.142C286.434 111.148 286.239 111.1 286.068 111.004Z" fill="#2F2E41"/>
<path d="M278.522 108.266C278.666 109.091 280.289 109.671 282.241 109.57C284.035 109.488 285.502 108.858 285.771 108.111C285.672 108.081 285.568 108.067 285.465 108.07L278.689 108.245C278.633 108.247 278.577 108.254 278.522 108.266Z" fill="#3F3D56"/>
<path d="M249.057 102.231V116.482C249.057 116.663 249.129 116.837 249.258 116.966C249.386 117.094 249.56 117.166 249.742 117.166H270.859C271.04 117.166 271.215 117.094 271.343 116.966C271.471 116.837 271.544 116.663 271.544 116.482V102.231C271.543 102.05 271.471 101.876 271.343 101.748C271.214 101.62 271.04 101.548 270.859 101.547H249.742C249.56 101.548 249.386 101.62 249.258 101.748C249.13 101.876 249.057 102.05 249.057 102.231Z" fill="#3F3D56"/>
<path d="M249.552 102.409V116.306C249.552 116.403 249.591 116.496 249.66 116.565C249.728 116.633 249.821 116.672 249.918 116.672H270.683C270.78 116.672 270.873 116.633 270.942 116.565C271.01 116.496 271.049 116.403 271.049 116.306V102.409C271.049 102.312 271.011 102.219 270.942 102.15C270.873 102.081 270.78 102.042 270.683 102.042H249.918C249.821 102.042 249.728 102.081 249.659 102.15C249.591 102.219 249.552 102.312 249.552 102.409Z" fill="#48FFB2"/>
<path d="M248.615 119.261C248.654 119.309 248.703 119.348 248.759 119.375C248.815 119.402 248.876 119.416 248.938 119.415H271.55C271.612 119.415 271.673 119.401 271.729 119.375C271.784 119.348 271.834 119.309 271.872 119.261C271.911 119.213 271.939 119.157 271.954 119.097C271.968 119.037 271.969 118.974 271.957 118.914L271.606 117.247C271.591 117.179 271.56 117.115 271.514 117.063C271.469 117.01 271.411 116.969 271.346 116.944C271.299 116.926 271.249 116.916 271.199 116.917H249.288C249.237 116.916 249.187 116.926 249.14 116.944C249.075 116.969 249.018 117.01 248.972 117.063C248.927 117.115 248.896 117.179 248.881 117.247L248.53 118.914C248.518 118.974 248.519 119.037 248.534 119.097C248.548 119.157 248.576 119.213 248.615 119.261Z" fill="#2F2E41"/>
<path d="M270.423 117.635H270.957C271.002 117.635 271.038 117.598 271.038 117.554V117.298C271.038 117.253 271.002 117.217 270.957 117.217H270.423C270.378 117.217 270.342 117.253 270.342 117.298V117.554C270.342 117.598 270.378 117.635 270.423 117.635Z" fill="#3F3D56"/>
<path d="M269.03 117.635H269.564C269.609 117.635 269.645 117.598 269.645 117.554V117.298C269.645 117.253 269.609 117.217 269.564 117.217H269.03C268.985 117.217 268.949 117.253 268.949 117.298V117.554C268.949 117.598 268.985 117.635 269.03 117.635Z" fill="#3F3D56"/>
<path d="M267.637 117.635H268.171C268.216 117.635 268.253 117.598 268.253 117.554V117.298C268.253 117.253 268.216 117.217 268.171 117.217H267.637C267.592 117.217 267.556 117.253 267.556 117.298V117.554C267.556 117.598 267.592 117.635 267.637 117.635Z" fill="#3F3D56"/>
<path d="M266.244 117.635H266.779C266.823 117.635 266.86 117.598 266.86 117.554V117.298C266.86 117.253 266.823 117.217 266.779 117.217H266.244C266.2 117.217 266.163 117.253 266.163 117.298V117.554C266.163 117.598 266.2 117.635 266.244 117.635Z" fill="#3F3D56"/>
<path d="M264.852 117.635H265.386C265.431 117.635 265.467 117.598 265.467 117.554V117.298C265.467 117.253 265.431 117.217 265.386 117.217H264.852C264.807 117.217 264.77 117.253 264.77 117.298V117.554C264.77 117.598 264.807 117.635 264.852 117.635Z" fill="#3F3D56"/>
<path d="M263.459 117.635H263.993C264.038 117.635 264.074 117.598 264.074 117.554V117.298C264.074 117.253 264.038 117.217 263.993 117.217H263.459C263.414 117.217 263.378 117.253 263.378 117.298V117.554C263.378 117.598 263.414 117.635 263.459 117.635Z" fill="#3F3D56"/>
<path d="M262.066 117.635H262.6C262.645 117.635 262.681 117.598 262.681 117.554V117.298C262.681 117.253 262.645 117.217 262.6 117.217H262.066C262.021 117.217 261.985 117.253 261.985 117.298V117.554C261.985 117.598 262.021 117.635 262.066 117.635Z" fill="#3F3D56"/>
<path d="M260.673 117.635H261.207C261.252 117.635 261.288 117.598 261.288 117.554V117.298C261.288 117.253 261.252 117.217 261.207 117.217H260.673C260.628 117.217 260.592 117.253 260.592 117.298V117.554C260.592 117.598 260.628 117.635 260.673 117.635Z" fill="#3F3D56"/>
<path d="M259.28 117.635H259.814C259.859 117.635 259.896 117.598 259.896 117.554V117.298C259.896 117.253 259.859 117.217 259.814 117.217H259.28C259.235 117.217 259.199 117.253 259.199 117.298V117.554C259.199 117.598 259.235 117.635 259.28 117.635Z" fill="#3F3D56"/>
<path d="M257.887 117.635H258.422C258.466 117.635 258.503 117.598 258.503 117.554V117.298C258.503 117.253 258.466 117.217 258.422 117.217H257.887C257.843 117.217 257.806 117.253 257.806 117.298V117.554C257.806 117.598 257.843 117.635 257.887 117.635Z" fill="#3F3D56"/>
<path d="M256.495 117.635H257.029C257.073 117.635 257.11 117.598 257.11 117.554V117.298C257.11 117.253 257.073 117.217 257.029 117.217H256.495C256.45 117.217 256.413 117.253 256.413 117.298V117.554C256.413 117.598 256.45 117.635 256.495 117.635Z" fill="#3F3D56"/>
<path d="M255.102 117.635H255.636C255.681 117.635 255.717 117.598 255.717 117.554V117.298C255.717 117.253 255.681 117.217 255.636 117.217H255.102C255.057 117.217 255.021 117.253 255.021 117.298V117.554C255.021 117.598 255.057 117.635 255.102 117.635Z" fill="#3F3D56"/>
<path d="M253.709 117.635H254.243C254.288 117.635 254.324 117.598 254.324 117.554V117.298C254.324 117.253 254.288 117.217 254.243 117.217H253.709C253.664 117.217 253.628 117.253 253.628 117.298V117.554C253.628 117.598 253.664 117.635 253.709 117.635Z" fill="#3F3D56"/>
<path d="M252.316 117.635H252.85C252.895 117.635 252.931 117.598 252.931 117.554V117.298C252.931 117.253 252.895 117.217 252.85 117.217H252.316C252.271 117.217 252.235 117.253 252.235 117.298V117.554C252.235 117.598 252.271 117.635 252.316 117.635Z" fill="#3F3D56"/>
<path d="M250.923 117.635H251.457C251.502 117.635 251.538 117.598 251.538 117.554V117.298C251.538 117.253 251.502 117.217 251.457 117.217H250.923C250.878 117.217 250.842 117.253 250.842 117.298V117.554C250.842 117.598 250.878 117.635 250.923 117.635Z" fill="#3F3D56"/>
<path d="M249.53 117.635H250.064C250.109 117.635 250.146 117.598 250.146 117.554V117.298C250.146 117.253 250.109 117.217 250.064 117.217H249.53C249.486 117.217 249.449 117.253 249.449 117.298V117.554C249.449 117.598 249.486 117.635 249.53 117.635Z" fill="#3F3D56"/>
<path d="M270.439 118.331H270.974C271.018 118.331 271.055 118.295 271.055 118.25V117.994C271.055 117.95 271.018 117.913 270.974 117.913H270.439C270.395 117.913 270.358 117.95 270.358 117.994V118.25C270.358 118.295 270.395 118.331 270.439 118.331Z" fill="#3F3D56"/>
<path d="M269.047 118.331H269.581C269.626 118.331 269.662 118.295 269.662 118.25V117.994C269.662 117.95 269.626 117.913 269.581 117.913H269.047C269.002 117.913 268.965 117.95 268.965 117.994V118.25C268.965 118.295 269.002 118.331 269.047 118.331Z" fill="#3F3D56"/>
<path d="M267.654 118.331H268.188C268.233 118.331 268.269 118.295 268.269 118.25V117.994C268.269 117.95 268.233 117.913 268.188 117.913H267.654C267.609 117.913 267.573 117.95 267.573 117.994V118.25C267.573 118.295 267.609 118.331 267.654 118.331Z" fill="#3F3D56"/>
<path d="M266.261 118.331H266.795C266.84 118.331 266.876 118.295 266.876 118.25V117.994C266.876 117.95 266.84 117.913 266.795 117.913H266.261C266.216 117.913 266.18 117.95 266.18 117.994V118.25C266.18 118.295 266.216 118.331 266.261 118.331Z" fill="#3F3D56"/>
<path d="M264.868 118.331H265.402C265.447 118.331 265.483 118.295 265.483 118.25V117.994C265.483 117.95 265.447 117.913 265.402 117.913H264.868C264.823 117.913 264.787 117.95 264.787 117.994V118.25C264.787 118.295 264.823 118.331 264.868 118.331Z" fill="#3F3D56"/>
<path d="M263.475 118.331H264.009C264.054 118.331 264.091 118.295 264.091 118.25V117.994C264.091 117.95 264.054 117.913 264.009 117.913H263.475C263.43 117.913 263.394 117.95 263.394 117.994V118.25C263.394 118.295 263.43 118.331 263.475 118.331Z" fill="#3F3D56"/>
<path d="M262.082 118.331H262.616C262.661 118.331 262.698 118.295 262.698 118.25V117.994C262.698 117.95 262.661 117.913 262.616 117.913H262.082C262.038 117.913 262.001 117.95 262.001 117.994V118.25C262.001 118.295 262.038 118.331 262.082 118.331Z" fill="#3F3D56"/>
<path d="M260.69 118.331H261.224C261.268 118.331 261.305 118.295 261.305 118.25V117.994C261.305 117.95 261.268 117.913 261.224 117.913H260.69C260.645 117.913 260.608 117.95 260.608 117.994V118.25C260.608 118.295 260.645 118.331 260.69 118.331Z" fill="#3F3D56"/>
<path d="M259.297 118.331H259.831C259.876 118.331 259.912 118.295 259.912 118.25V117.994C259.912 117.95 259.876 117.913 259.831 117.913H259.297C259.252 117.913 259.216 117.95 259.216 117.994V118.25C259.216 118.295 259.252 118.331 259.297 118.331Z" fill="#3F3D56"/>
<path d="M257.904 118.331H258.438C258.483 118.331 258.519 118.295 258.519 118.25V117.994C258.519 117.95 258.483 117.913 258.438 117.913H257.904C257.859 117.913 257.823 117.95 257.823 117.994V118.25C257.823 118.295 257.859 118.331 257.904 118.331Z" fill="#3F3D56"/>
<path d="M256.511 118.331H257.045C257.09 118.331 257.126 118.295 257.126 118.25V117.994C257.126 117.95 257.09 117.913 257.045 117.913H256.511C256.466 117.913 256.43 117.95 256.43 117.994V118.25C256.43 118.295 256.466 118.331 256.511 118.331Z" fill="#3F3D56"/>
<path d="M255.118 118.331H255.652C255.697 118.331 255.733 118.295 255.733 118.25V117.994C255.733 117.95 255.697 117.913 255.652 117.913H255.118C255.073 117.913 255.037 117.95 255.037 117.994V118.25C255.037 118.295 255.073 118.331 255.118 118.331Z" fill="#3F3D56"/>
<path d="M253.725 118.331H254.259C254.304 118.331 254.341 118.295 254.341 118.25V117.994C254.341 117.95 254.304 117.913 254.259 117.913H253.725C253.681 117.913 253.644 117.95 253.644 117.994V118.25C253.644 118.295 253.681 118.331 253.725 118.331Z" fill="#3F3D56"/>
<path d="M252.333 118.331H252.867C252.911 118.331 252.948 118.295 252.948 118.25V117.994C252.948 117.95 252.911 117.913 252.867 117.913H252.333C252.288 117.913 252.251 117.95 252.251 117.994V118.25C252.251 118.295 252.288 118.331 252.333 118.331Z" fill="#3F3D56"/>
<path d="M250.94 118.331H251.474C251.519 118.331 251.555 118.295 251.555 118.25V117.994C251.555 117.95 251.519 117.913 251.474 117.913H250.94C250.895 117.913 250.858 117.95 250.858 117.994V118.25C250.858 118.295 250.895 118.331 250.94 118.331Z" fill="#3F3D56"/>
<path d="M249.547 118.331H250.081C250.126 118.331 250.162 118.295 250.162 118.25V117.994C250.162 117.95 250.126 117.913 250.081 117.913H249.547C249.502 117.913 249.466 117.95 249.466 117.994V118.25C249.466 118.295 249.502 118.331 249.547 118.331Z" fill="#3F3D56"/>
<path d="M258.879 119.167H264.288C264.333 119.167 264.369 119.13 264.369 119.086V118.83C264.369 118.785 264.333 118.749 264.288 118.749H258.879C258.834 118.749 258.798 118.785 258.798 118.83V119.086C258.798 119.13 258.834 119.167 258.879 119.167Z" fill="#3F3D56"/>
<path d="M299.639 118.486L309.09 110.223C309.539 109.83 308.682 111.001 309.075 111.45C309.468 111.9 310.962 111.458 310.513 111.85L301.062 120.113L298.668 120.66L299.639 118.486Z" fill="#3F3D56"/>
<path d="M299.639 118.486L299.868 118.285C300.174 118.439 300.447 118.65 300.671 118.908C300.937 119.212 301.13 119.572 301.236 119.961L301.062 120.113L299.154 120.548L298.668 120.659L298.871 120.204L299.639 118.486Z" fill="#CCCCCC"/>
<path d="M298.871 120.204C298.942 120.235 299.004 120.283 299.054 120.343C299.103 120.402 299.137 120.473 299.154 120.548L298.668 120.659L298.871 120.204Z" fill="#3F3D56"/>
<path d="M361.302 92.0035C360.411 93.337 358.984 94.2598 357.448 94.717C356.824 94.9027 356.18 95.0122 355.529 95.0429C355.449 94.3075 355.257 93.5886 354.959 92.9113C354.989 93.6322 354.889 94.3527 354.663 95.0379C353.686 94.9825 352.732 94.7267 351.858 94.2864C350.154 93.4135 348.842 91.7441 348.551 89.8503C348.208 87.6389 349.211 85.4674 349.574 83.2593C349.938 81.0513 349.254 78.2546 347.093 77.6743C345.447 77.232 345.631 77.4232 344.263 78.4392C345.686 80.5438 340.429 88.2566 338.277 87.584C337.061 87.2038 336.282 86.0876 336.031 86.0876C334.34 89.0006 337.524 93.9089 334.315 94.9282L334.579 94.6638C336.516 92.2812 332.468 87.2382 334.405 84.8555C334.945 84.1888 335.52 83.399 335.361 82.556C335.209 81.7546 333.937 81.3306 333.565 81.989C334.235 80.4544 333.246 78.4059 331.608 78.0118C330.153 77.661 330.18 78.0933 328.72 78.2812C328.624 77.6503 328.446 77.0348 328.189 76.4506C328.216 77.08 328.143 77.7098 327.972 78.3161C327.456 78.306 326.958 78.126 326.555 77.804C325.365 76.8446 325.606 74.8294 326.668 73.7304C327.732 72.6313 329.313 72.2356 330.822 71.9796C331.26 68.9267 339.683 68.6082 340.799 71.6587C341.275 69.3808 344.126 68.1986 346.343 68.9052C348.559 69.6119 350.097 71.6819 350.907 73.8634C351.717 76.0432 351.943 78.3893 352.442 80.6605C352.94 82.9318 353.783 85.2446 355.519 86.7926C357.255 88.3389 360.083 88.851 361.912 87.4144C362.489 88.9109 362.192 90.6683 361.302 92.0035Z" fill="#2F2E41"/>
</svg>
