<svg width="939" height="981" viewBox="0 0 939 981" fill="none" xmlns="http://www.w3.org/2000/svg">
<path d="M104.959 140C104.959 112.386 127.345 90 154.959 90H504.959V490H104.959V140Z" fill="#A8B7BE"/>
<path d="M504.959 90H854.959C882.573 90 904.959 112.386 904.959 140V490H504.959V90Z" fill="#4C5F65"/>
<path d="M504.959 490H904.959V840C904.959 867.614 882.573 890 854.959 890H504.959V490Z" fill="#8399A4"/>
<path d="M104.959 490H504.959V890H154.959C127.345 890 104.959 867.614 104.959 840V490Z" fill="#8399A4"/>
<circle cx="704.959" cy="690" r="234" fill="url(#paint0_linear_0_3)"/>
<path d="M288.112 390.871V191.652H321.919V390.871H288.112ZM205.406 308.165V274.358H404.625V308.165H205.406Z" fill="white"/>
<path d="M363.47 762.627L222.601 621.758L246.506 597.853L387.375 738.722L363.47 762.627ZM246.506 762.627L222.601 738.722L363.47 597.853L387.375 621.758L246.506 762.627Z" fill="white"/>
<path d="M776.101 278.116V313.273H632.919V278.116H776.101Z" fill="white"/>
<path d="M776.101 653.116V688.273H632.919V653.116H776.101Z" fill="white"/>
<path d="M776.101 714.116V749.273H632.919V714.116H776.101Z" fill="white"/>
<defs>
<linearGradient id="paint0_linear_0_3" x1="704.959" y1="456" x2="704.959" y2="924" gradientUnits="userSpaceOnUse">
<stop stop-color="#43FEBB"/>
<stop offset="1" stop-color="#00B167"/>
</linearGradient>
</defs>
</svg>
