<svg width="400" height="200" viewBox="0 0 400 200" fill="none" xmlns="http://www.w3.org/2000/svg">
<rect width="400" height="200" fill="#F5FFFA"/>
<path d="M45.376 65.252C43.528 65.252 41.872 64.952 40.408 64.352C38.944 63.752 37.768 62.864 36.88 61.688C36.016 60.512 35.56 59.096 35.512 57.44H42.064C42.16 58.376 42.484 59.096 43.036 59.6C43.588 60.08 44.308 60.32 45.196 60.32C46.108 60.32 46.828 60.116 47.356 59.708C47.884 59.276 48.148 58.688 48.148 57.944C48.148 57.32 47.932 56.804 47.5 56.396C47.092 55.988 46.576 55.652 45.952 55.388C45.352 55.124 44.488 54.824 43.36 54.488C41.728 53.984 40.396 53.48 39.364 52.976C38.332 52.472 37.444 51.728 36.7 50.744C35.956 49.76 35.584 48.476 35.584 46.892C35.584 44.54 36.436 42.704 38.14 41.384C39.844 40.04 42.064 39.368 44.8 39.368C47.584 39.368 49.828 40.04 51.532 41.384C53.236 42.704 54.148 44.552 54.268 46.928H47.608C47.56 46.112 47.26 45.476 46.708 45.02C46.156 44.54 45.448 44.3 44.584 44.3C43.84 44.3 43.24 44.504 42.784 44.912C42.328 45.296 42.1 45.86 42.1 46.604C42.1 47.42 42.484 48.056 43.252 48.512C44.02 48.968 45.22 49.46 46.852 49.988C48.484 50.54 49.804 51.068 50.812 51.572C51.844 52.076 52.732 52.808 53.476 53.768C54.22 54.728 54.592 55.964 54.592 57.476C54.592 58.916 54.22 60.224 53.476 61.4C52.756 62.576 51.7 63.512 50.308 64.208C48.916 64.904 47.272 65.252 45.376 65.252ZM75.1564 47.72C74.7004 46.88 74.0404 46.244 73.1764 45.812C72.3364 45.356 71.3404 45.128 70.1884 45.128C68.1964 45.128 66.6004 45.788 65.4004 47.108C64.2004 48.404 63.6004 50.144 63.6004 52.328C63.6004 54.656 64.2244 56.48 65.4724 57.8C66.7444 59.096 68.4844 59.744 70.6924 59.744C72.2044 59.744 73.4764 59.36 74.5084 58.592C75.5644 57.824 76.3324 56.72 76.8124 55.28H69.0004V50.744H82.3924V56.468C81.9364 58.004 81.1564 59.432 80.0524 60.752C78.9724 62.072 77.5924 63.14 75.9124 63.956C74.2324 64.772 72.3364 65.18 70.2244 65.18C67.7284 65.18 65.4964 64.64 63.5284 63.56C61.5844 62.456 60.0604 60.932 58.9564 58.988C57.8764 57.044 57.3364 54.824 57.3364 52.328C57.3364 49.832 57.8764 47.612 58.9564 45.668C60.0604 43.7 61.5844 42.176 63.5284 41.096C65.4724 39.992 67.6924 39.44 70.1884 39.44C73.2124 39.44 75.7564 40.172 77.8204 41.636C79.9084 43.1 81.2884 45.128 81.9604 47.72H75.1564ZM105.062 47.864C105.062 49.328 104.726 50.672 104.054 51.896C103.382 53.096 102.35 54.068 100.958 54.812C99.5663 55.556 97.8383 55.928 95.7743 55.928H91.9583V65H85.8023V39.728H95.7743C97.7903 39.728 99.4943 40.076 100.886 40.772C102.278 41.468 103.322 42.428 104.018 43.652C104.714 44.876 105.062 46.28 105.062 47.864ZM95.3063 51.032C96.4823 51.032 97.3583 50.756 97.9343 50.204C98.5103 49.652 98.7983 48.872 98.7983 47.864C98.7983 46.856 98.5103 46.076 97.9343 45.524C97.3583 44.972 96.4823 44.696 95.3063 44.696H91.9583V51.032H95.3063ZM123.999 60.536H114.567L113.055 65H106.611L115.755 39.728H122.883L132.027 65H125.511L123.999 60.536ZM122.415 55.784L119.283 46.532L116.187 55.784H122.415Z" fill="#2C2C2C"/>
<path d="M47.428 101.78V107H44.296C42.064 107 40.324 106.46 39.076 105.38C37.828 104.276 37.204 102.488 37.204 100.016V92.024H34.756V86.912H37.204V82.016H43.36V86.912H47.392V92.024H43.36V100.088C43.36 100.688 43.504 101.12 43.792 101.384C44.08 101.648 44.56 101.78 45.232 101.78H47.428ZM60.001 107.288C58.033 107.288 56.257 106.868 54.673 106.028C53.113 105.188 51.877 103.988 50.965 102.428C50.077 100.868 49.633 99.044 49.633 96.956C49.633 94.892 50.089 93.08 51.001 91.52C51.913 89.936 53.161 88.724 54.745 87.884C56.329 87.044 58.105 86.624 60.073 86.624C62.041 86.624 63.817 87.044 65.401 87.884C66.985 88.724 68.233 89.936 69.145 91.52C70.057 93.08 70.513 94.892 70.513 96.956C70.513 99.02 70.045 100.844 69.109 102.428C68.197 103.988 66.937 105.188 65.329 106.028C63.745 106.868 61.969 107.288 60.001 107.288ZM60.001 101.96C61.177 101.96 62.173 101.528 62.989 100.664C63.829 99.8 64.249 98.564 64.249 96.956C64.249 95.348 63.841 94.112 63.025 93.248C62.233 92.384 61.249 91.952 60.073 91.952C58.873 91.952 57.877 92.384 57.085 93.248C56.293 94.088 55.897 95.324 55.897 96.956C55.897 98.564 56.281 99.8 57.049 100.664C57.841 101.528 58.825 101.96 60.001 101.96Z" fill="#2C2C2C"/>
<path d="M55.492 132.864C55.492 134.328 55.156 135.672 54.484 136.896C53.812 138.096 52.78 139.068 51.388 139.812C49.996 140.556 48.268 140.928 46.204 140.928H42.388V150H36.232V124.728H46.204C48.22 124.728 49.924 125.076 51.316 125.772C52.708 126.468 53.752 127.428 54.448 128.652C55.144 129.876 55.492 131.28 55.492 132.864ZM45.736 136.032C46.912 136.032 47.788 135.756 48.364 135.204C48.94 134.652 49.228 133.872 49.228 132.864C49.228 131.856 48.94 131.076 48.364 130.524C47.788 129.972 46.912 129.696 45.736 129.696H42.388V136.032H45.736ZM77.6328 139.632C77.6328 140.208 77.5968 140.808 77.5248 141.432H63.5928C63.6888 142.68 64.0848 143.64 64.7808 144.312C65.5008 144.96 66.3768 145.284 67.4088 145.284C68.9448 145.284 70.0128 144.636 70.6128 143.34H77.1648C76.8288 144.66 76.2168 145.848 75.3288 146.904C74.4648 147.96 73.3728 148.788 72.0528 149.388C70.7328 149.988 69.2568 150.288 67.6248 150.288C65.6568 150.288 63.9048 149.868 62.3688 149.028C60.8328 148.188 59.6328 146.988 58.7688 145.428C57.9048 143.868 57.4728 142.044 57.4728 139.956C57.4728 137.868 57.8928 136.044 58.7328 134.484C59.5968 132.924 60.7968 131.724 62.3328 130.884C63.8688 130.044 65.6328 129.624 67.6248 129.624C69.5688 129.624 71.2968 130.032 72.8088 130.848C74.3208 131.664 75.4968 132.828 76.3368 134.34C77.2008 135.852 77.6328 137.616 77.6328 139.632ZM71.3328 138.012C71.3328 136.956 70.9728 136.116 70.2528 135.492C69.5328 134.868 68.6328 134.556 67.5528 134.556C66.5208 134.556 65.6448 134.856 64.9248 135.456C64.2288 136.056 63.7968 136.908 63.6288 138.012H71.3328ZM87.0364 133.26C87.7564 132.156 88.6564 131.292 89.7364 130.668C90.8164 130.02 92.0164 129.696 93.3364 129.696V136.212H91.6444C90.1084 136.212 88.9564 136.548 88.1884 137.22C87.4204 137.868 87.0364 139.02 87.0364 140.676V150H80.8804V129.912H87.0364V133.26ZM95.0549 139.956C95.0549 137.868 95.4749 136.044 96.3149 134.484C97.1789 132.924 98.3669 131.724 99.8789 130.884C101.415 130.044 103.167 129.624 105.135 129.624C107.655 129.624 109.755 130.284 111.435 131.604C113.139 132.924 114.255 134.784 114.783 137.184H108.231C107.679 135.648 106.611 134.88 105.027 134.88C103.899 134.88 102.999 135.324 102.327 136.212C101.655 137.076 101.319 138.324 101.319 139.956C101.319 141.588 101.655 142.848 102.327 143.736C102.999 144.6 103.899 145.032 105.027 145.032C106.611 145.032 107.679 144.264 108.231 142.728H114.783C114.255 145.08 113.139 146.928 111.435 148.272C109.731 149.616 107.631 150.288 105.135 150.288C103.167 150.288 101.415 149.868 99.8789 149.028C98.3669 148.188 97.1789 146.988 96.3149 145.428C95.4749 143.868 95.0549 142.044 95.0549 139.956ZM137.012 139.632C137.012 140.208 136.976 140.808 136.904 141.432H122.972C123.068 142.68 123.464 143.64 124.16 144.312C124.88 144.96 125.756 145.284 126.788 145.284C128.324 145.284 129.392 144.636 129.992 143.34H136.544C136.208 144.66 135.596 145.848 134.708 146.904C133.844 147.96 132.752 148.788 131.432 149.388C130.112 149.988 128.636 150.288 127.004 150.288C125.036 150.288 123.284 149.868 121.748 149.028C120.212 148.188 119.012 146.988 118.148 145.428C117.284 143.868 116.852 142.044 116.852 139.956C116.852 137.868 117.272 136.044 118.112 134.484C118.976 132.924 120.176 131.724 121.712 130.884C123.248 130.044 125.012 129.624 127.004 129.624C128.948 129.624 130.676 130.032 132.188 130.848C133.7 131.664 134.876 132.828 135.716 134.34C136.58 135.852 137.012 137.616 137.012 139.632ZM130.712 138.012C130.712 136.956 130.352 136.116 129.632 135.492C128.912 134.868 128.012 134.556 126.932 134.556C125.9 134.556 125.024 134.856 124.304 135.456C123.608 136.056 123.176 136.908 123.008 138.012H130.712ZM152.499 129.696C154.851 129.696 156.723 130.464 158.115 132C159.531 133.512 160.239 135.6 160.239 138.264V150H154.119V139.092C154.119 137.748 153.771 136.704 153.075 135.96C152.379 135.216 151.443 134.844 150.267 134.844C149.091 134.844 148.155 135.216 147.459 135.96C146.763 136.704 146.415 137.748 146.415 139.092V150H140.259V129.912H146.415V132.576C147.039 131.688 147.879 130.992 148.935 130.488C149.991 129.96 151.179 129.696 152.499 129.696ZM175.713 144.78V150H172.581C170.349 150 168.609 149.46 167.361 148.38C166.113 147.276 165.489 145.488 165.489 143.016V135.024H163.041V129.912H165.489V125.016H171.645V129.912H175.677V135.024H171.645V143.088C171.645 143.688 171.789 144.12 172.077 144.384C172.365 144.648 172.845 144.78 173.517 144.78H175.713Z" fill="#2C2C2C"/>
<path d="M268.666 91.8645H248.199V114.75H268.666V91.8645Z" fill="#CCCCCC"/>
<path d="M237.779 149.171H227.36L226.244 140.24H238.896L237.779 149.171Z" fill="white"/>
<path d="M258.702 142.702L258.35 147.509C258.335 147.727 258.365 147.945 258.441 148.15C258.516 148.355 258.635 148.541 258.788 148.696C258.941 148.851 259.126 148.972 259.33 149.05C259.533 149.128 259.751 149.162 259.969 149.148L262.438 148.999C262.553 148.992 262.664 148.96 262.765 148.905C262.865 148.85 262.953 148.774 263.02 148.681C263.088 148.589 263.135 148.483 263.157 148.37C263.179 148.258 263.176 148.142 263.148 148.03L261.778 142.549L258.702 142.702Z" fill="white"/>
<path d="M279.354 145.545C282.26 146.225 284.336 147.191 285.699 148.498C286.185 148.961 286.82 149.233 287.49 149.266C288.345 149.311 289.044 149.215 289.57 148.98C289.705 148.921 289.821 148.827 289.907 148.707C289.993 148.588 290.045 148.448 290.058 148.301C290.074 148.152 290.05 148.002 289.988 147.866C289.927 147.729 289.829 147.612 289.707 147.526L282.815 142.622L279.888 143.793L279.205 144.476C279.131 144.55 279.075 144.64 279.042 144.739C279.009 144.839 278.999 144.944 279.014 145.048C279.028 145.151 279.066 145.25 279.125 145.336C279.184 145.423 279.263 145.494 279.354 145.545Z" fill="white"/>
<path d="M270.412 67.0614L250.713 66.879C250.762 64.0098 251.43 61.1924 252.889 58.6711C253.847 57.0153 253.827 55.2132 253.596 53.695C253.239 51.3522 254.068 48.955 255.91 47.4636C257.317 46.3219 259.093 45.7342 260.904 45.8112L261.287 45.8271C262.532 45.8789 263.745 46.2428 264.814 46.8855C265.883 47.5283 266.773 48.4292 267.402 49.5055C268.043 50.6545 268.301 51.9773 268.14 53.2827C268.015 54.5109 268.313 55.7517 269.012 57.0042C270.218 59.7547 270.479 63.2743 270.412 67.0614Z" fill="#2F2E41"/>
<path d="M283.591 142.878L279.725 143.886L260.899 102.872L262.075 142.878H258.209C254.078 124.056 246.619 102.334 249.973 95.4757L269.976 94.2991L283.591 142.878Z" fill="#48FFB2"/>
<path d="M260.731 60.1766C263.608 60.1766 265.941 57.8436 265.941 54.9658C265.941 52.0879 263.608 49.7549 260.731 49.7549C257.853 49.7549 255.52 52.0879 255.52 54.9658C255.52 57.8436 257.853 60.1766 260.731 60.1766Z" fill="#FFB9B9"/>
<path d="M265.269 64.5469L256.696 64.0427C257.536 62.1144 257.872 60.2575 257.537 58.4956H263.924C263.91 59.8484 264.583 62.1884 265.269 64.5469Z" fill="#FFB9B9"/>
<path d="M270.648 95.8121L251.822 97.157L253.755 63.7906L257.033 62.8661L260.731 63.7065L264.428 61.8574L266.782 62.698L270.648 95.8121Z" fill="#48FFB2"/>
<path d="M255.015 119.849L242.156 116.908C245.98 104.228 252.869 75.2204 250.645 64.8831L257.369 61.8574L255.015 119.849Z" fill="white"/>
<path d="M248.796 83.2051L243.921 80.1795L248.079 68.0037C248.542 66.7473 249.43 65.6925 250.589 65.0215L251.99 64.2107L251.149 76.4814L248.796 83.2051Z" fill="white"/>
<path d="M281.826 117.076C277.768 119.424 267.622 120.733 263.168 119.093C262.84 107.637 262.197 75.2312 264.26 61.5215L271.657 64.5472L270.984 73.6241C267.448 81.389 277.716 108.434 281.826 117.076Z" fill="white"/>
<path d="M281.238 81.6924L276.699 80.1796L270.648 73.2877L271.657 64.5469L281.742 78.6667L281.238 81.6924Z" fill="white"/>
<path d="M267.014 88.2351C267.088 88.561 267.289 88.8441 267.572 89.0224C267.854 89.2007 268.196 89.2597 268.522 89.1863L272.375 88.3138L271.818 85.8547L267.965 86.727C267.639 86.8009 267.356 87.0013 267.178 87.2841C266.999 87.5669 266.94 87.909 267.014 88.2351Z" fill="#FFB9B9"/>
<path d="M265.269 53.6209C262.375 52.4308 259.516 52.3446 256.696 53.4528L255.52 49.2505H266.278L265.269 53.6209Z" fill="#2F2E41"/>
<path d="M270.48 85.3904L272.665 89.4247C276.341 88.3996 279.526 85.1678 282.583 81.3562L281.742 78.6667L276.531 80.0115L270.48 85.3904Z" fill="white"/>
<path d="M268.883 77.07H268.211C268.211 67.5603 266.253 60.9331 264.345 60.9331L264.176 60.2607C265.888 60.2607 266.979 63.0189 267.592 65.3328C268.425 68.4697 268.883 72.638 268.883 77.07Z" fill="#3F3D56"/>
<path d="M253.419 74.7164H252.746C252.746 66.0071 254.718 60.5967 257.621 60.5967L257.453 61.269C255.445 61.269 253.419 65.4271 253.419 74.7164Z" fill="#3F3D56"/>
<path d="M268.547 78.9187C269.475 78.9187 270.228 78.1662 270.228 77.2378C270.228 76.3095 269.475 75.5569 268.547 75.5569C267.618 75.5569 266.866 76.3095 266.866 77.2378C266.866 78.1662 267.618 78.9187 268.547 78.9187Z" fill="#3F3D56"/>
<path d="M250.729 78.7508H250.057C250.057 76.3409 251.414 74.3804 253.082 74.3804V75.0527C251.785 75.0527 250.729 76.7117 250.729 78.7508Z" fill="#3F3D56"/>
<path d="M256.108 78.7508H255.436C255.436 76.7117 254.38 75.0527 253.082 75.0527V74.3804C254.751 74.3804 256.108 76.3409 256.108 78.7508Z" fill="#3F3D56"/>
<path d="M255.772 79.5913C256.143 79.5913 256.444 79.2903 256.444 78.919C256.444 78.5476 256.143 78.2466 255.772 78.2466C255.4 78.2466 255.099 78.5476 255.099 78.919C255.099 79.2903 255.4 79.5913 255.772 79.5913Z" fill="#3F3D56"/>
<path d="M250.393 79.5913C250.764 79.5913 251.065 79.2903 251.065 78.919C251.065 78.5476 250.764 78.2466 250.393 78.2466C250.022 78.2466 249.72 78.5476 249.72 78.919C249.72 79.2903 250.022 79.5913 250.393 79.5913Z" fill="#3F3D56"/>
<path d="M241.988 72.7358L246.183 73.4849L255.772 87.1188L250.678 85.9201L241.988 72.7358Z" fill="#48FFB2"/>
<path d="M241.244 72.5691C241.18 72.5701 241.118 72.5882 241.063 72.6216C241.009 72.6549 240.964 72.7024 240.934 72.7589C240.904 72.8154 240.89 72.8789 240.893 72.9427C240.896 73.0066 240.916 73.0685 240.951 73.1219L249.914 86.7207C249.964 86.7967 250.041 86.8507 250.13 86.8715L254.3 87.8526C254.37 87.8692 254.444 87.864 254.511 87.8377C254.579 87.8114 254.636 87.7653 254.677 87.7054C254.717 87.6456 254.739 87.5749 254.738 87.5026C254.737 87.4304 254.715 87.3601 254.673 87.301L244.832 73.3089C244.806 73.2707 244.772 73.2382 244.733 73.2132C244.693 73.1882 244.65 73.1712 244.604 73.1632L241.311 72.5752C241.289 72.5712 241.267 72.5692 241.244 72.5691Z" fill="#3F3D56"/>
<path d="M246.835 82.2921L247.084 84.8012L251.015 84.411C251.348 84.378 251.654 84.2141 251.866 83.9555C252.078 83.6969 252.178 83.3647 252.145 83.0319C252.112 82.6992 251.948 82.3932 251.69 82.1813C251.431 81.9694 251.099 81.8689 250.766 81.9019L246.835 82.2921Z" fill="#FFB9B9"/>
<path d="M243.417 82.0016C243.423 82.8571 243.766 83.6757 244.373 84.279C244.98 84.8823 245.8 85.2214 246.656 85.2224H247.302L247.773 81.301L243.877 79.8984L243.417 82.0016Z" fill="white"/>
<path d="M379 42H302.343V82.3753H379V42Z" fill="white"/>
<path d="M304.575 80.1425H376.767V44.2327H304.575V80.1425Z" fill="white"/>
<path d="M335.834 49.4424H310.157V75.1189H335.834V49.4424Z" fill="#3F3D56"/>
<path d="M329.694 61.1645C330.105 61.1645 330.438 60.8313 330.438 60.4203C330.438 60.0092 330.105 59.676 329.694 59.676C329.283 59.676 328.949 60.0092 328.949 60.4203C328.949 60.8313 329.283 61.1645 329.694 61.1645Z" fill="#48FFB2"/>
<path d="M326.903 58.5595C327.314 58.5595 327.647 58.2263 327.647 57.8153C327.647 57.4043 327.314 57.071 326.903 57.071C326.492 57.071 326.159 57.4043 326.159 57.8153C326.159 58.2263 326.492 58.5595 326.903 58.5595Z" fill="#48FFB2"/>
<path d="M326.531 60.4201C326.257 60.4201 325.988 60.4962 325.755 60.6398C325.55 60.331 325.308 60.0476 325.036 59.7959C325.039 59.7561 325.042 59.7163 325.042 59.6758C325.042 59.3838 324.957 59.0981 324.796 58.8545C324.635 58.6109 324.405 58.42 324.137 58.3058C323.868 58.1916 323.571 58.159 323.284 58.2122C322.997 58.2653 322.732 58.4018 322.522 58.6047C322.123 58.5481 321.719 58.5446 321.319 58.5942C321.319 58.5825 321.321 58.5712 321.321 58.5594C321.321 58.3103 321.259 58.0651 321.14 57.8462C321.021 57.6274 320.849 57.4419 320.639 57.3068C320.43 57.1718 320.19 57.0914 319.942 57.0731C319.693 57.0548 319.444 57.0992 319.217 57.2022C318.99 57.3051 318.793 57.4634 318.643 57.6625C318.493 57.8615 318.396 58.095 318.36 58.3415C318.324 58.588 318.35 58.8397 318.436 59.0734C318.523 59.3071 318.666 59.5154 318.854 59.6792C318.605 59.8926 318.379 60.1317 318.18 60.3925C317.996 60.2396 317.778 60.1332 317.544 60.0823C317.311 60.0314 317.069 60.0375 316.838 60.1001C316.607 60.1627 316.395 60.2799 316.219 60.4418C316.043 60.6037 315.909 60.8056 315.828 61.0304C315.747 61.2552 315.721 61.4962 315.752 61.7331C315.784 61.9701 315.872 62.1959 316.009 62.3916C316.147 62.5872 316.329 62.7469 316.541 62.8571C316.753 62.9674 316.989 63.0249 317.228 63.0249L317.232 63.0247C317.23 63.0866 317.228 63.1485 317.228 63.211C317.228 63.5855 317.273 63.9586 317.362 64.3223C316.92 64.4888 316.527 64.7649 316.221 65.1248C315.914 65.4847 315.704 65.9165 315.61 66.3798C315.517 66.843 315.542 67.3225 315.684 67.7732C315.827 68.224 316.081 68.6312 316.424 68.9566C316.767 69.282 317.187 69.515 317.644 69.6337C318.102 69.7524 318.582 69.7529 319.04 69.6352C319.497 69.5175 319.918 69.2854 320.261 68.9608C320.605 68.6361 320.86 68.2294 321.003 67.779C322.039 67.978 323.111 67.819 324.044 67.3279C324.139 67.5522 324.288 67.7497 324.478 67.903C324.667 68.0564 324.891 68.1609 325.13 68.2073C325.369 68.2538 325.616 68.2408 325.849 68.1696C326.083 68.0983 326.295 67.9709 326.467 67.7986C326.639 67.6263 326.766 67.4143 326.838 67.1813C326.909 66.9483 326.922 66.7013 326.876 66.4621C326.829 66.2229 326.725 65.9987 326.571 65.8093C326.418 65.6199 326.22 65.4711 325.996 65.3758C326.318 64.764 326.5 64.0878 326.526 63.3968L326.531 63.3971C326.925 63.3971 327.304 63.2402 327.583 62.9611C327.862 62.6819 328.019 62.3033 328.019 61.9086C328.019 61.5138 327.862 61.1352 327.583 60.856C327.304 60.5769 326.925 60.4201 326.531 60.4201Z" fill="#48FFB2"/>
<path d="M326.159 48.8843H318.716V50.0006H326.159V48.8843Z" fill="white"/>
<path d="M368.581 49.4424H342.904V75.1189H368.581V49.4424Z" fill="#3F3D56"/>
<path d="M360.617 66.8581C360.802 66.8581 360.952 66.7081 360.952 66.5231C360.952 66.3382 360.802 66.1882 360.617 66.1882C360.432 66.1882 360.282 66.3382 360.282 66.5231C360.282 66.7081 360.432 66.8581 360.617 66.8581Z" fill="#48FFB2"/>
<path d="M359.361 65.6857C359.546 65.6857 359.696 65.5357 359.696 65.3508C359.696 65.1658 359.546 65.0159 359.361 65.0159C359.176 65.0159 359.026 65.1658 359.026 65.3508C359.026 65.5357 359.176 65.6857 359.361 65.6857Z" fill="#48FFB2"/>
<path d="M359.194 66.5231C359.071 66.5231 358.95 66.5573 358.845 66.622C358.752 66.483 358.644 66.3555 358.521 66.2422C358.523 66.2243 358.524 66.2064 358.524 66.1882C358.524 66.0567 358.485 65.9282 358.413 65.8186C358.341 65.7089 358.237 65.6231 358.116 65.5717C357.995 65.5203 357.862 65.5056 357.733 65.5295C357.604 65.5534 357.484 65.6149 357.39 65.7061C357.21 65.6807 357.028 65.6791 356.849 65.7014C356.849 65.6962 356.849 65.6911 356.849 65.6858C356.85 65.5737 356.822 65.4633 356.768 65.3648C356.714 65.2664 356.637 65.1829 356.543 65.1221C356.449 65.0613 356.341 65.0252 356.229 65.0169C356.117 65.0087 356.005 65.0287 355.903 65.075C355.801 65.1214 355.712 65.1926 355.644 65.2822C355.577 65.3717 355.533 65.4768 355.517 65.5877C355.501 65.6987 355.512 65.8119 355.551 65.9171C355.59 66.0222 355.655 66.116 355.739 66.1897C355.627 66.2857 355.525 66.3933 355.436 66.5107C355.353 66.4419 355.255 66.394 355.15 66.3711C355.045 66.3482 354.936 66.3509 354.832 66.3791C354.728 66.4072 354.633 66.46 354.554 66.5329C354.474 66.6057 354.414 66.6966 354.377 66.7977C354.341 66.8989 354.329 67.0073 354.343 67.114C354.358 67.2206 354.397 67.3222 354.459 67.4102C354.521 67.4983 354.603 67.5701 354.698 67.6198C354.794 67.6694 354.9 67.6953 355.007 67.6953L355.01 67.6951C355.008 67.723 355.007 67.7509 355.007 67.779C355.007 67.9475 355.028 68.1154 355.068 68.2791C354.869 68.354 354.692 68.4782 354.554 68.6402C354.416 68.8021 354.322 68.9965 354.28 69.2049C354.237 69.4134 354.249 69.6292 354.313 69.832C354.377 70.0348 354.491 70.2181 354.646 70.3645C354.8 70.5109 354.989 70.6158 355.195 70.6692C355.401 70.7226 355.617 70.7229 355.823 70.6699C356.029 70.6169 356.218 70.5125 356.372 70.3664C356.527 70.2203 356.642 70.0373 356.706 69.8346C357.172 69.9241 357.655 69.8526 358.075 69.6316C358.118 69.7325 358.185 69.8214 358.27 69.8904C358.355 69.9594 358.456 70.0064 358.564 70.0273C358.671 70.0482 358.782 70.0424 358.887 70.0103C358.992 69.9783 359.087 69.921 359.165 69.8434C359.243 69.7659 359.3 69.6705 359.332 69.5656C359.364 69.4608 359.37 69.3496 359.349 69.242C359.328 69.1343 359.281 69.0335 359.212 68.9482C359.143 68.863 359.054 68.796 358.953 68.7531C359.098 68.4779 359.18 68.1735 359.192 67.8626L359.194 67.8627C359.371 67.8627 359.542 67.7921 359.667 67.6665C359.793 67.5409 359.864 67.3705 359.864 67.1929C359.864 67.0152 359.793 66.8449 359.667 66.7193C359.542 66.5936 359.371 66.5231 359.194 66.5231Z" fill="#48FFB2"/>
<path d="M363.245 60.5023C363.43 60.5023 363.58 60.3524 363.58 60.1674C363.58 59.9825 363.43 59.8325 363.245 59.8325C363.06 59.8325 362.91 59.9825 362.91 60.1674C362.91 60.3524 363.06 60.5023 363.245 60.5023Z" fill="#48FFB2"/>
<path d="M364.032 58.9755C364.217 58.9755 364.367 58.8255 364.367 58.6406C364.367 58.4556 364.217 58.3057 364.032 58.3057C363.848 58.3057 363.698 58.4556 363.698 58.6406C363.698 58.8255 363.848 58.9755 364.032 58.9755Z" fill="#48FFB2"/>
<path d="M362.859 58.7972C362.825 58.6785 362.76 58.5715 362.669 58.4881C362.778 58.3614 362.871 58.2223 362.947 58.0736C362.964 58.0702 362.982 58.0666 363 58.0616C363.126 58.0261 363.239 57.9541 363.325 57.8546C363.411 57.7551 363.466 57.6326 363.483 57.5022C363.499 57.3719 363.477 57.2395 363.419 57.1216C363.361 57.0037 363.27 56.9055 363.156 56.8392C363.132 56.6596 363.084 56.4841 363.014 56.3171C363.019 56.3158 363.024 56.315 363.029 56.3136C363.137 56.2833 363.236 56.2265 363.316 56.1482C363.396 56.0699 363.456 55.9728 363.489 55.8656C363.522 55.7584 363.527 55.6447 363.505 55.5349C363.482 55.425 363.433 55.3225 363.361 55.2368C363.288 55.1511 363.196 55.0849 363.091 55.0443C362.987 55.0037 362.874 54.9899 362.762 55.0044C362.651 55.0188 362.545 55.0608 362.455 55.1268C362.364 55.1927 362.291 55.2803 362.243 55.3816C362.12 55.2997 361.989 55.2309 361.852 55.1765C361.896 55.0782 361.915 54.9709 361.909 54.8635C361.903 54.7562 361.87 54.6519 361.815 54.5597C361.76 54.4674 361.683 54.3897 361.592 54.3333C361.5 54.2769 361.396 54.2434 361.289 54.2356C361.182 54.2279 361.074 54.246 360.975 54.2886C360.876 54.3312 360.789 54.3969 360.721 54.4803C360.653 54.5636 360.607 54.6621 360.585 54.7674C360.563 54.8727 360.567 54.9817 360.596 55.0853L360.596 55.0873C360.569 55.0938 360.542 55.1003 360.515 55.108C360.353 55.1537 360.197 55.2188 360.05 55.3018C359.924 55.1305 359.757 54.9941 359.563 54.9052C359.37 54.8164 359.157 54.7781 358.945 54.794C358.733 54.8099 358.529 54.8794 358.351 54.996C358.173 55.1126 358.028 55.2725 357.928 55.4607C357.829 55.6489 357.78 55.8592 357.784 56.0718C357.788 56.2845 357.847 56.4925 357.953 56.6764C358.06 56.8604 358.212 57.0141 358.395 57.1233C358.577 57.2325 358.784 57.2935 358.997 57.3006C359.037 57.7734 359.237 58.2184 359.563 58.5627C359.478 58.6313 359.41 58.7199 359.367 58.8206C359.324 58.9213 359.306 59.0312 359.315 59.1405C359.324 59.2497 359.36 59.3551 359.419 59.4474C359.478 59.5396 359.559 59.6159 359.655 59.6695C359.751 59.7231 359.858 59.7525 359.968 59.7549C360.077 59.7573 360.186 59.7328 360.284 59.6835C360.382 59.6342 360.466 59.5616 360.529 59.4721C360.593 59.3826 360.633 59.2789 360.647 59.1701C360.951 59.2351 361.266 59.231 361.569 59.1582L361.569 59.1603C361.593 59.245 361.633 59.3242 361.688 59.3934C361.742 59.4625 361.81 59.5203 361.886 59.5634C361.963 59.6064 362.048 59.6339 362.135 59.6443C362.223 59.6547 362.311 59.6478 362.396 59.6239C362.48 59.6001 362.56 59.5598 362.629 59.5053C362.698 59.4508 362.756 59.3833 362.799 59.3065C362.842 59.2297 362.869 59.1452 362.879 59.0578C362.89 58.9704 362.883 58.8818 362.859 58.7972Z" fill="#48FFB2"/>
<path d="M350.273 55.9513C350.458 55.9513 350.608 55.8014 350.608 55.6164C350.608 55.4314 350.458 55.2815 350.273 55.2815C350.088 55.2815 349.938 55.4314 349.938 55.6164C349.938 55.8014 350.088 55.9513 350.273 55.9513Z" fill="#48FFB2"/>
<path d="M348.561 56.0883C348.746 56.0883 348.896 55.9383 348.896 55.7534C348.896 55.5684 348.746 55.4185 348.561 55.4185C348.376 55.4185 348.226 55.5684 348.226 55.7534C348.226 55.9383 348.376 56.0883 348.561 56.0883Z" fill="#48FFB2"/>
<path d="M349.313 56.6672C349.23 56.7582 349.174 56.8705 349.151 56.9915C348.986 56.9661 348.819 56.9603 348.652 56.9745C348.64 56.9613 348.628 56.9483 348.614 56.936C348.517 56.8473 348.396 56.7892 348.267 56.7688C348.137 56.7484 348.004 56.7667 347.884 56.8213C347.765 56.876 347.664 56.9647 347.595 57.0762C347.525 57.1878 347.49 57.3173 347.494 57.4487C347.354 57.564 347.23 57.6973 347.125 57.8451C347.122 57.8415 347.118 57.8376 347.114 57.834C347.032 57.7583 346.931 57.7046 346.822 57.6778C346.714 57.6509 346.6 57.6518 346.491 57.6804C346.383 57.709 346.283 57.7644 346.202 57.8414C346.121 57.9184 346.06 58.0147 346.025 58.1213C345.99 58.228 345.983 58.3416 346.004 58.4518C346.025 58.562 346.073 58.6652 346.144 58.752C346.214 58.8388 346.306 58.9064 346.41 58.9486C346.514 58.9909 346.627 59.0063 346.738 58.9936C346.733 59.1412 346.744 59.2889 346.77 59.4342C346.664 59.4488 346.562 59.4889 346.475 59.5511C346.387 59.6133 346.315 59.6957 346.266 59.7913C346.217 59.887 346.192 59.9931 346.192 60.1006C346.193 60.2082 346.219 60.314 346.269 60.4093C346.319 60.5045 346.391 60.5862 346.48 60.6476C346.568 60.709 346.67 60.7482 346.776 60.762C346.883 60.7757 346.991 60.7635 347.092 60.7265C347.193 60.6895 347.284 60.6286 347.356 60.5492L347.358 60.5476C347.378 60.5672 347.398 60.5867 347.418 60.6057C347.543 60.7193 347.681 60.8175 347.829 60.8981C347.75 61.0956 347.722 61.3099 347.749 61.521C347.775 61.732 347.855 61.9328 347.981 62.1045C348.106 62.2762 348.273 62.4133 348.466 62.5027C348.659 62.5922 348.872 62.6312 349.084 62.616C349.296 62.6008 349.501 62.532 349.679 62.4159C349.857 62.2999 350.003 62.1405 350.103 61.9526C350.203 61.7648 350.253 61.5547 350.25 61.342C350.246 61.1293 350.188 60.9211 350.082 60.7368C350.462 60.4531 350.735 60.0485 350.855 59.5894C350.958 59.6258 351.069 59.6363 351.177 59.6199C351.286 59.6034 351.388 59.5606 351.476 59.4952C351.564 59.4298 351.635 59.3438 351.682 59.2448C351.729 59.1457 351.751 59.0366 351.746 58.9271C351.741 58.8175 351.709 58.7109 351.654 58.6165C351.598 58.5221 351.52 58.4429 351.426 58.3857C351.332 58.3286 351.226 58.2953 351.117 58.2888C351.007 58.2823 350.898 58.3028 350.798 58.3484C350.693 58.0557 350.523 57.7903 350.301 57.5719L350.303 57.5704C350.362 57.5054 350.408 57.4294 350.438 57.3467C350.468 57.2639 350.482 57.176 350.478 57.0881C350.474 57.0001 350.453 56.9138 350.415 56.8341C350.378 56.7543 350.325 56.6827 350.26 56.6234C350.195 56.564 350.119 56.5181 350.036 56.4881C349.954 56.4582 349.866 56.4449 349.778 56.449C349.69 56.453 349.604 56.4744 349.524 56.5118C349.444 56.5493 349.373 56.602 349.313 56.6672Z" fill="#48FFB2"/>
<path d="M358.905 48.8843H351.463V50.0006H358.905V48.8843Z" fill="white"/>
<path d="M224.684 136.937C227.367 140.53 232.937 140.908 232.937 140.908C232.937 140.908 234.156 135.46 231.473 131.867C228.79 128.274 223.221 127.896 223.221 127.896C223.221 127.896 222.001 133.344 224.684 136.937Z" fill="white"/>
<path d="M238.352 138.287C236.581 140.658 232.906 140.908 232.906 140.908C232.906 140.908 232.102 137.313 233.872 134.942C235.643 132.571 239.318 132.322 239.318 132.322C239.318 132.322 240.122 135.916 238.352 138.287Z" fill="white"/>
<path d="M316.669 149.107H220V149.524H316.669V149.107Z" fill="#3F3D56"/>
</svg>
